<svg version="1.2" xmlns="http://www.w3.org/2000/svg" viewBox="0 0 400 400" width="256" height="256">
	<style>
		.s0 { fill: #a3a5ab } 
		.s1 { fill: #3a9069 } 
		.s2 { fill: #60dfa4 } 
		.s3 { fill: #57595b } 
		.s4 { fill: #6b7b78 } 
	</style>
	<g id="svgg">
		<path id="path0 copy" fill-rule="evenodd" class="s0" d="m200.48 73.03c0.09 0.09-0.13 4.64-0.49 10.12-0.37 5.47-0.66 10.39-0.66 10.93-0.01 0.91-0.18 0.97-2.51 0.91-1.52-0.04-1.95-0.14-1.09-0.25 1.41-0.17 1.41-0.18 0.76-1.43-0.84-1.63-2.93-2.05-6.48-1.3-1.45 0.3-3.52 0.6-4.6 0.66-6.96 0.4-23.88 4.7-26.94 6.85-0.59 0.41-1.41 0.75-1.83 0.75q-1.03 0-5.14 2.92c-0.59 0.43-1.25 0.72-1.46 0.65-0.71-0.23-2.52 1.27-2.28 1.89 0.13 0.35-0.16 0.83-0.67 1.1-0.65 0.35-0.82 0.35-0.61 0.01 0.48-0.78-0.89-0.55-2.56 0.43-0.85 0.5-1.43 1.09-1.3 1.31 0.14 0.22 0.46 0.27 0.72 0.11q0.44-0.25 0.16 0.22c-0.17 0.28-0.5 0.39-0.72 0.26-0.22-0.14-0.4-0.07-0.4 0.16 0 0.22-0.52 0.74-1.14 1.16q-1.12 0.72-0.78 0.16c0.2-0.32-0.38 0.15-1.28 1.05-0.9 0.9-1.82 1.52-2.05 1.38-0.22-0.14-0.41-0.07-0.41 0.16 0 0.22-1.71 1.87-3.8 3.66-4.22 3.62-9.44 9.41-13.19 14.66-1.36 1.9-2.55 3.36-2.66 3.25-0.11-0.11-0.2 0.06-0.2 0.37 0 0.31-0.8 1.92-1.79 3.59-20.38 34.38-15.34 78.76 12.39 109.18l3.65 4-1.44 0.76c-0.79 0.42-1.58 0.72-1.76 0.67-0.18-0.04-0.32 0.09-0.32 0.3 0 0.21-0.52 0.72-1.14 1.13-0.63 0.41-1.01 0.53-0.85 0.27 0.44-0.71-1.01-0.59-1.74 0.14-0.75 0.75-0.82 1.29-0.12 0.86q0.48-0.29 0.19 0.2c-0.18 0.28-0.51 0.39-0.75 0.24-0.96-0.6-2.67 0.24-2.05 1.01q0.62 0.75 0.04 0.39c-0.3-0.18-0.54-0.13-0.54 0.12 0 0.24-0.41 0.66-0.92 0.93-0.65 0.35-0.84 0.36-0.63 0.02 0.18-0.28-0.04-0.48-0.53-0.48-1.16 0-1.48 0.46-0.85 1.24 0.43 0.53 0.43 0.6 0 0.34-0.3-0.18-0.55-0.14-0.55 0.09 0 0.22-0.49 0.73-1.09 1.12q-1.08 0.7-0.98 0.19c0.06-0.3-0.59-0.87-1.44-1.29-2.49-1.21-10.22-10.5-13.33-16.03-0.47-0.84-1.66-2.73-2.65-4.2-0.98-1.47-2.16-3.62-2.62-4.78-0.46-1.16-1.76-4.16-2.88-6.66-3.68-8.2-6.98-19.9-7.84-27.84-0.14-1.31-0.56-3.56-0.92-5-0.89-3.49-0.58-19.29 0.46-24.12 0.39-1.79 0.88-4.64 1.1-6.32 0.72-5.61 3.48-15.79 5.74-21.23 0.68-1.65 1.24-3.28 1.24-3.64 0-0.35 0.68-1.94 1.52-3.53 0.83-1.59 2.02-4.06 2.64-5.49 0.62-1.44 1.38-2.91 1.68-3.26 0.31-0.36 1.12-1.73 1.81-3.05 1.96-3.72 7.36-11.15 11.48-15.78 6.79-7.64 19.56-18.54 22.99-19.63 0.73-0.23 0.93-0.55 0.77-1.19-0.13-0.48-0.12-0.75 0.02-0.62 0.14 0.14 0.53-0.08 0.88-0.5 0.34-0.41 0.49-0.5 0.34-0.21q-0.28 0.55 0.81 0.55c0.84 0 1.05-0.19 0.93-0.85-0.12-0.59 0.02-0.77 0.45-0.6 0.34 0.13 0.74-0.08 0.89-0.46 0.14-0.38 0.44-0.59 0.65-0.46 0.22 0.14 0.39 0.03 0.39-0.24 0-0.27 0.2-0.37 0.44-0.22 0.24 0.15 0.43 0.05 0.43-0.22 0-0.26 0.2-0.36 0.44-0.21 0.24 0.15 0.43 0.05 0.43-0.22 0-0.27 0.2-0.37 0.44-0.22 0.24 0.15 0.43 0.07 0.43-0.18 0-0.24 0.33-0.32 0.72-0.17 0.44 0.17 0.62 0.11 0.45-0.16-0.32-0.52 1.74-1.58 2.34-1.21 0.22 0.14 0.4 0.02 0.4-0.25 0-0.28 0.31-0.4 0.68-0.25 0.37 0.14 0.57 0.08 0.43-0.13-0.28-0.46 0.98-1.01 1.54-0.67 0.22 0.14 0.4 0.06 0.4-0.17 0-0.6 2.49-1.39 3.34-1.06q0.69 0.26 0.41-0.21c-0.33-0.55 6.87-2.91 7.56-2.49 0.23 0.15 0.42 0.09 0.42-0.12 0-0.47 4.27-1.5 4.83-1.16 0.21 0.13 0.39 0.01 0.39-0.27 0-0.31 0.43-0.43 1.09-0.3 0.6 0.11 1.08 0.06 1.08-0.12 0-0.44 6.78-1.46 7.36-1.1 0.26 0.16 0.47 0.06 0.47-0.22 0-0.36 0.61-0.45 1.95-0.3 1.08 0.12 1.96 0.06 1.96-0.14 0-0.2 1.32-0.45 2.94-0.55 3.21-0.2 16.65 0.03 16.91 0.29zm54.62 18.12c0.32 0 1.64 4.02 1.4 4.26-0.22 0.22-0.91-1.42-1.36-3.2-0.15-0.58-0.17-1.06-0.04-1.06zm-67.51 3.57c0.83 0 1.18 0.09 0.76 0.2-0.42 0.11-1.11 0.11-1.52 0-0.42-0.11-0.08-0.2 0.76-0.2zm-69.69 5.12c0.33 0 0 0.38-1.72 1.98l-1.84 1.71 1.72-1.84c0.94-1.02 1.77-1.85 1.84-1.85zm-6.52 6.52c0.33 0 0 0.38-1.72 1.98l-1.84 1.72 1.71-1.85c0.95-1.02 1.78-1.85 1.85-1.85zm150.55 4.8c0.24 0.83 0.25 1.27 0.02 1.04-0.22-0.22-0.54-0.99-0.71-1.71-0.41-1.73 0.16-1.17 0.69 0.67zm1.91 6.07c0.29 0 2.01 5.35 1.79 5.57-0.12 0.11-0.3-0.07-0.42-0.4-0.89-2.55-1.54-4.57-1.54-4.85 0-0.17 0.07-0.32 0.17-0.32zm-62.02 9.43c0.08 0.24 0.65 0.34 1.28 0.22 0.73-0.14 1.03-0.05 0.85 0.24-0.17 0.28 0.03 0.38 0.52 0.25 6.34-1.66 33.59 18.74 29.32 21.95-1.26 0.94-4.15 2.35-3.86 1.88 0.52-0.83-0.59-0.97-1.98-0.24-1.26 0.64-1.33 0.78-0.68 1.25 0.66 0.48 0.62 0.58-0.38 1.04-0.62 0.28-0.99 0.31-0.84 0.07 0.16-0.25-0.01-0.33-0.4-0.18-0.37 0.14-0.56 0.45-0.41 0.68 0.14 0.23-0.12 0.19-0.59-0.1-0.7-0.44-1.15-0.35-2.76 0.58-6.79 3.95-6.74 3.96-12.14-1.16-7.34-6.95-17.06-9.01-27.1-5.73-3.28 1.07-7.24 3.49-7.24 4.43 0 0.29-0.65 0.93-1.45 1.43-13.37 8.26-21.13 39.15-13.73 54.66 2.27 4.76 7.8 9.82 11.81 10.82 0.66 0.16 1.12 0.42 1.02 0.58-0.09 0.15 0.74 0.33 1.86 0.39 1.11 0.07 2.07 0.27 2.13 0.44 0.06 0.18 2.21 0.16 4.78-0.04 2.57-0.2 5.11-0.4 5.65-0.44 0.54-0.04 0.98-0.23 0.98-0.43 0-0.2 0.41-0.22 0.92-0.06 0.68 0.21 0.84 0.15 0.58-0.26q-0.38-0.59 0.38-0.28c0.85 0.32 2.12-0.07 1.81-0.57-0.29-0.46 1.05-0.94 1.63-0.58 0.25 0.15 0.34 0.08 0.18-0.17-0.16-0.25 0.01-0.57 0.37-0.71 0.35-0.14 0.65-0.08 0.65 0.13 0 2.85 9.38-5.73 12.33-11.27 4.51-8.49 3.3-9.56-10.77-9.57-10.6-0.01-10.21 0.15-9.28-3.99 2.89-12.75 2.96-13.61 1.15-13.61-0.33 0-0.61-0.3-0.61-0.66 0-0.56 2.38-0.68 17.94-0.86 9.86-0.13 17.93-0.13 17.93-0.01 0 0.35-7.81 27.37-8.77 30.35-0.48 1.5-0.77 3.17-0.64 3.69 0.28 1.13 4.63 29.18 4.63 29.85 0 0.59 5.07 0.6 5.36 0.01q0.19-0.36 0.11 0.11c-0.08 0.42-2.32 0.58-9.53 0.67l-9.42 0.11 0.09-4.46 0.09-4.46 0.14 4.24 0.15 4.23h9.98l-0.71-1.08c-0.59-0.9-1.06-1.09-2.69-1.09-2.23 0-3.57-0.9-3.57-2.39 0-4.15-3.78-7.33-5.15-4.33-0.69 1.51-0.64 1.71 0.26 1.01 0.69-0.54 0.7-0.52 0.15 0.18-0.33 0.42-0.68 0.7-0.77 0.61-0.09-0.09-0.81 0.44-1.61 1.18-1.5 1.39-4.51 3.31-4.06 2.59 0.39-0.64-1.36-0.43-4.69 0.56-23.25 6.89-44.46-2.24-53.16-22.89-1.86-4.41-3.96-13.08-3.99-16.46-0.01-1.04-0.34-3.5-0.75-5.45-0.67-3.27-0.67-3.72-0.03-5.71 0.38-1.18 0.7-3.33 0.72-4.76 0.04-3.65 1.66-11.64 2.88-14.13 0.29-0.6 0.66-1.87 0.83-2.83 1.34-7.73 11.98-22.79 21.32-30.18 1.66-1.31 2.35-2.14 2.18-2.59-0.14-0.37-0.12-0.53 0.05-0.37 0.17 0.17 0.58-0.03 0.92-0.45 0.34-0.41 0.5-0.51 0.35-0.21q-0.27 0.53 0.4 0.28c0.37-0.14 0.58-0.4 0.47-0.58-0.29-0.47 1.92-1.39 2.48-1.05q0.45 0.28 0.11-0.28c-0.26-0.42-0.15-0.5 0.37-0.3 0.43 0.16 0.73 0.06 0.73-0.25q0.02-0.5 0.43 0.12c0.37 0.57 0.6 0.34 0.5-0.49-0.05-0.43 5.96-2.21 6.45-1.9 0.24 0.15 0.44 0.04 0.44-0.24 0-0.3 0.36-0.42 0.87-0.29 0.48 0.13 0.87 0.08 0.87-0.11 0-0.19 1.32-0.53 2.93-0.76 3.86-0.55 20.23-0.4 20.43 0.18zm-46.09 11.43c0.32 0-0.13 0.49-3.46 3.71l-3.59 3.47 3.47-3.59c1.9-1.97 3.52-3.59 3.58-3.59zm34.9 10.13c1.31 0 1.85 0.09 1.19 0.18-0.65 0.1-1.73 0.1-2.39 0-0.65-0.09-0.11-0.18 1.2-0.18zm-110.1 34.09c0.09 1.48 0.09 4.03 0 5.65-0.08 1.62-0.15 0.41-0.15-2.7 0-3.11 0.07-4.44 0.15-2.95zm52.15 4.58c0.11 0.42 0.11 1.11 0 1.52-0.11 0.42-0.2 0.08-0.2-0.76 0-0.83 0.09-1.18 0.2-0.76zm0 6.74c0.11 0.54 0.11 1.42 0 1.96-0.1 0.53-0.18 0.09-0.18-0.98 0-1.08 0.08-1.52 0.18-0.98zm69.25 16.75c0 0.07-1.02 1.1-2.28 2.29l-2.28 2.15 2.15-2.28c2.01-2.12 2.41-2.48 2.41-2.16zm-60.24 49.83c-0.36 0.37 1.58 1.38 2.06 1.09q0.46-0.28 0.2 0.17c-0.36 0.58 1.86 1.8 2.73 1.49 0.35-0.13 0.48-0.02 0.31 0.26-0.37 0.6 3.06 2.4 3.93 2.07q0.61-0.23 0.32 0.26-0.32 0.5 0.43 0.21 0.76-0.29 0.44 0.22-0.32 0.51 0.43 0.22c0.41-0.16 0.65-0.13 0.53 0.07-0.12 0.2 0.46 0.68 1.29 1.08 1.82 0.87 2.06 0.9 1.7 0.18-0.15-0.3 0-0.21 0.34 0.2 0.76 0.93 2.88 1.76 3.68 1.46q0.57-0.21 0.29 0.26-0.32 0.51 0.63 0.26 0.92-0.23 0.65 0.21-0.26 0.45 0.66 0.22c0.51-0.13 0.82-0.07 0.69 0.15-0.13 0.22-0.05 0.39 0.18 0.39 0.24 0 0.77 0.13 1.19 0.29 0.56 0.22 0.67 0.14 0.43-0.32-0.18-0.35-0.06-0.31 0.27 0.09 0.66 0.8 7.9 2.75 8.85 2.38 0.34-0.13 0.62-0.03 0.62 0.22 0 0.25 0.54 0.41 1.2 0.36 0.66-0.06 1.54 0.05 1.97 0.23 0.43 0.19 1.36 0.22 2.07 0.08 0.81-0.17 1.29-0.08 1.29 0.23 0 0.33 0.87 0.4 2.84 0.22 1.78-0.17 2.74-0.11 2.58 0.15-0.16 0.26 1.18 0.42 3.46 0.42 2.26 0 3.72-0.17 3.72-0.45 0-0.29 1.01-0.34 2.87-0.15 2.22 0.23 2.95 0.16 3.24-0.31q0.38-0.59 0.77-0.17c0.71 0.78 5.81 21.17 5.4 21.58-0.53 0.53-1.84-0.01-1.84-0.75 0-0.98-1.69-1.6-3.42-1.25-0.87 0.17-4.13 0.29-7.23 0.26-3.11-0.04-5.92 0.11-6.24 0.32-0.33 0.2-1.11 0.21-1.74 0.02-1.1-0.35-2.63-0.59-10.94-1.74-14.08-1.95-30.82-8.47-43.33-16.88-7.84-5.27-8.41-6.9-3.25-9.29 1.59-0.74 2.99-1.48 3.11-1.64 0.37-0.51 4.72-2.59 5.4-2.59 0.36 0 0.8-0.26 0.99-0.58 0.2-0.32 0.74-0.8 1.22-1.06 0.79-0.44 3.42-0.56 3.01-0.14zm48.51 36.66c0.83 0 1.17 0.09 0.76 0.2-0.42 0.11-1.11 0.11-1.53 0-0.41-0.11-0.07-0.2 0.77-0.2z"/>
		<path id="path1" fill-rule="evenodd" class="s1" d="m202.82 74.13c1 1.21 1.06 3.08 0.4 12.84-0.24 3.56-0.39 6.52-0.32 6.59 0.06 0.06 2.56 0.54 5.55 1.06 6.7 1.17 15.88 4.16 21.09 6.87 5.02 2.63 5.25 3.44 2.04 7.3-4.31 5.19-5.41 4.39 12.09 8.83 15.33 3.89 19.97 5.34 21.12 6.61 0.89 0.98 0.34 1.11-0.7 0.16-0.41-0.36-1.89-0.87-3.3-1.14-1.41-0.26-3.44-0.75-4.52-1.09-2.26-0.72-16.22-4.44-23.37-6.23-2.7-0.67-5.24-1.48-5.66-1.79-0.41-0.32-0.81-0.62-0.89-0.66-0.23-0.14 4.83-6.85 5.7-7.56 2.95-2.41-14.53-9.52-26.24-10.68-4.16-0.41-4.02 0-3.41-10.17 0.39-6.57 0.4-9.01 0.03-9.83-0.27-0.6-0.49-1.33-0.48-1.61 0.01-0.29 0.4-0.06 0.87 0.5zm46.79 7.29c-0.35 2.13-2.25 4.94-3.34 4.94-1.18 0-1.15-0.09 1.2-3.5 2.4-3.48 2.48-3.53 2.14-1.44zm126.78 33.21c0.52 0.01-0.71 0.75-2.74 1.66-5.09 2.27-5.22 2.31-5.22 1.64 0-0.59 2.57-1.71 5.1-2.22 0.78-0.16 1.52-0.47 1.66-0.69 0.14-0.22 0.68-0.4 1.2-0.39zm-9.26 4.87c0 0.26-0.12 0.36-0.27 0.22-0.14-0.14-0.73-0.08-1.3 0.13-0.67 0.26-1.04 0.24-1.04-0.04 0-0.24 0.44-0.6 0.98-0.81q1.62-0.61 1.63 0.5zm-5 1.21c0.59 0 1.08 0.15 1.08 0.34 0 0.18-0.49 0.38-1.08 0.43-0.6 0.05-1.09-0.11-1.09-0.34 0-0.24 0.49-0.43 1.09-0.43zm-11.52 5.86c-8.34 3.87-9.26 4.26-8.93 3.72 0.16-0.25 0.52-0.46 0.81-0.46 0.29 0 1.6-0.7 2.91-1.57 1.31-0.87 3.44-1.94 4.72-2.39 1.29-0.45 2.6-1.02 2.91-1.28 0.31-0.26 1.11-0.63 1.79-0.83 4.05-1.22 3.12-0.6-4.21 2.81zm-10.48 4.76c-0.11 0.1-1.12 0.59-2.25 1.07-2.3 0.99-2.84 0.54-0.64-0.54 1.26-0.63 3.37-1.01 2.89-0.53zm-7.35 3.75c0 0.25-0.14 0.37-0.33 0.25-0.18-0.11-1.11 0.19-2.06 0.66-4.96 2.45-6.09 2.27-1.52-0.23 2.06-1.14 3.91-1.46 3.91-0.68zm-12.06 5.24c0.18-0.03 0.33 0.16 0.33 0.41 0 0.25-0.18 0.35-0.4 0.21-0.22-0.13-0.67 0-0.99 0.3-0.33 0.3-0.88 0.61-1.23 0.69-0.36 0.07-1.16 0.39-1.78 0.7-1.04 0.51-1.12 0.48-0.93-0.26 0.27-1.03 0.55-1.19 2.82-1.64 1.02-0.2 2-0.39 2.18-0.41zm-9.99 5.33c-1.16 0.59-1.36 0.61-1.16 0.08 0.14-0.35 0.57-0.72 0.97-0.82 2.18-0.58 2.25-0.31 0.19 0.74zm-18.85 9.56c-0.63 0.57-3 1.53-3 1.22 0-0.21 0.44-0.59 0.97-0.85 0.93-0.45 2.42-0.72 2.03-0.37zm-22.35 12.45c-0.72 0.47-1.44 0.86-1.62 0.86-0.6 0.01 0.18-1.25 0.9-1.44 1.68-0.45 1.94-0.23 0.72 0.58zm-52.21 4.51c0.86 0.36 2.23 0.52 3.37 0.39 5.24-0.59 6.34 1.49 4.29 8.1-0.79 2.53-2.18 7.44-3.1 10.91-0.92 3.46-2.26 8.16-2.99 10.43-2.4 7.53-2.38 8.21 0.39 24.77 0.74 4.42 1.34 8.67 1.34 9.44 0 0.95 0.44 1.9 1.35 2.94 1.26 1.43 1.29 1.54 0.43 1.54-1.22 0-2.64-2.37-2.64-4.41 0-0.87-0.28-3.02-0.63-4.78-0.74-3.84-2.17-13-2.88-18.45-0.57-4.41-0.51-4.84 1.96-12.79 0.86-2.75 1.97-6.66 2.46-8.69 1.22-4.98 3.83-13.9 4.33-14.84 1.25-2.33-1.68-3.83-5-2.56-1.33 0.5-4.11 0.09-3.21-0.48 0.83-0.53-0.78-0.51-1.77 0.03-1.85 0.99-2.81-0.03-1.05-1.11 1.99-1.22 1.6-1.17 3.35-0.44zm52.21 55.92c0.31 0.97-2.04 5.55-4.07 7.95-0.65 0.76-1.95 2.55-2.9 3.98-1.93 2.89-13.22 14.37-14.55 14.8-0.48 0.15-0.87 0.44-0.87 0.64 0 0.51-4.8 3.74-6.1 4.1-1 0.28-0.99 0.24 0.23-0.7 10.2-7.85 18.64-16.89 23.96-25.64 0.85-1.39 1.71-2.53 1.92-2.53 0.22 0 0.6-0.78 0.86-1.74 0.51-1.9 1.09-2.23 1.52-0.86zm-124.98 23.67c0 0.12-0.78 0.61-1.74 1.1-0.96 0.49-1.74 0.79-1.74 0.67 0-0.12 0.74-0.6 1.63-1.07 1.85-0.98 1.85-0.98 1.85-0.7zm-3.91 2.18c0 0.11-0.59 0.51-1.31 0.88-1.63 0.84-1.73 0.48-0.11-0.41 1.37-0.74 1.42-0.75 1.42-0.47zm-3.08 1.53c0.48 0-0.99 0.95-8.23 5.35-8.73 5.3-15.65 9.86-14.95 9.86 0.26 0 2-0.39 3.87-0.87 3.31-0.84 4.87-0.88 2.77-0.06-6.1 2.38-7.44 2.77-7.78 2.21-0.3-0.47-0.48-0.47-1.04 0-0.37 0.31-0.59 0.7-0.49 0.87 0.1 0.17-0.93 0.84-2.29 1.49l-2.47 1.2 1.3-1.12c2.05-1.76 18.14-12.43 23.9-15.84 2.86-1.7 5.29-3.09 5.41-3.09zm-9.78 10.45c0.55-0.02 0.26 0.19-1.38 1.03-1.71 0.87-1.9 0.55-0.22-0.36 0.66-0.36 1.38-0.66 1.6-0.67zm77.87 12.36c0.26 1.24 0.99 3.86 3.23 11.47l0.93 3.21 2.26-0.29c2.21-0.29 3.34-0.54 8.12-1.81 4.42-1.18 7.16-2.01 8.48-2.59 3.7-1.61 7.17-2.55 7.17-1.94 0 0.24-0.15 0.4-0.33 0.35-0.66-0.18-3.58 1.04-3.58 1.5 0 0.26-0.12 0.35-0.27 0.21-0.31-0.32-3.74 0.96-4.13 1.54-0.14 0.21-0.44 0.36-0.65 0.33-0.63-0.11-4.08 0.94-4.08 1.24 0 0.15-0.61 0.29-1.35 0.32-0.74 0.02-1.48 0.22-1.63 0.43-0.16 0.21-0.48 0.39-0.72 0.4-1.34 0.05-4.13 0.77-4.13 1.07 0 0.2-0.36 0.26-0.82 0.14-0.45-0.12-0.94-0.02-1.08 0.22-0.15 0.24-0.64 0.34-1.09 0.22-0.45-0.12-0.95-0.01-1.1 0.24-0.16 0.25-0.55 0.35-0.88 0.22-0.32-0.12-0.72-0.02-0.88 0.24-0.15 0.25-0.51 0.46-0.78 0.46-0.27 0-0.15-0.25 0.27-0.55 0.71-0.52 0.61-1.05-1.4-8.15-1.19-4.18-2.38-8.42-2.65-9.43-0.26-1.01-0.88-2.11-1.37-2.45-0.63-0.45-0.72-0.68-0.31-0.83 0.68-0.24 2.39 2.36 2.77 4.23z"/>
		<path id="path2" fill-rule="evenodd" class="s2" d="m202.93 74.28c0.89 1.2 0.9 1.39 0.41 10.22-0.28 4.95-0.46 9.04-0.41 9.09 0.05 0.05 2.53 0.51 5.52 1.03 6.7 1.17 15.88 4.16 21.09 6.87 5.02 2.63 5.25 3.44 2.04 7.3-4.31 5.19-5.32 4.42 11.43 8.64 15.09 3.81 20.36 5.46 21.83 6.83 1.32 1.25 1.79 0.67 0.88-1.07-0.98-1.88-2.04-5.1-2.05-6.2 0-0.5-0.29-1.28-0.65-1.74-0.35-0.47-0.64-1.17-0.65-1.56-0.01-0.39-0.3-1.27-0.66-1.95-0.36-0.69-0.65-1.61-0.65-2.06-0.01-0.85-3.96-12.62-4.99-14.84-0.33-0.72-0.74-1.89-0.91-2.61q-0.45-1.9-3.24-10c-0.5-1.43-1-2.88-1.11-3.21q-0.48-1.41-1.12 1.98c-0.55 2.99-2.32 5.51-3.67 5.25-0.58-0.11-1.05-0.03-1.05 0.18 0 0.22-1.42-0.39-3.15-1.34-10.23-5.61-24.92-10.28-36.69-11.67l-3.1-0.36zm183.32 35.43c-30.65 5.33-71.02 17.32-108.03 32.08-19.98 7.97-48.74 21.15-48.17 22.08 0.15 0.25 0.05 0.31-0.21 0.14-0.71-0.43-7.59 3.12-7.21 3.72q0.26 0.45-0.19 0.19c-0.69-0.43-4.09 1.39-3.72 1.99q0.27 0.46-0.22 0.16c-0.51-0.31-6.63 3-6.94 3.75-0.08 0.2-0.31 0.26-0.51 0.13-0.2-0.12-0.49-0.03-0.64 0.22-0.18 0.28 0.83 0.44 2.8 0.44 1.87 0 3.06-0.18 3.06-0.46 0-0.26-0.53-0.42-1.19-0.37-2.79 0.22-3-0.01-1.11-1.14 1.71-1.03 1.93-1.06 3.31-0.48 0.9 0.37 2.25 0.53 3.4 0.4 5.25-0.59 6.35 1.49 4.29 8.1-0.78 2.53-2.18 7.44-3.09 10.9-0.92 3.47-2.26 8.17-2.99 10.44-2.4 7.53-2.39 8.21 0.39 24.77 0.74 4.42 1.34 8.67 1.34 9.44 0 0.94 0.44 1.9 1.33 2.92l1.33 1.51-2.31 0.16-2.3 0.16 2.44 0.08c3.3 0.11 2.61 2.1 9.18-26.31 5.69-24.61 5.89-25.34 7.22-26.58 0.75-0.71 1.37-1.21 1.37-1.12 0 0.09 2.59-1.53 5.76-3.6 3.17-2.07 10.45-6.57 16.19-10.02 5.74-3.44 10.38-6.45 10.32-6.69-0.07-0.24 0.08-0.31 0.33-0.16 0.38 0.24 4.99-2.04 5.66-2.79 0.11-0.14 1.15-0.69 2.3-1.23 1.15-0.54 1.97-1.17 1.82-1.41-0.15-0.25 0.05-0.3 0.49-0.14 0.54 0.21 0.65 0.14 0.39-0.28q-0.35-0.58 0.14-0.28c0.65 0.41 10.56-4.95 10.21-5.51-0.15-0.25-0.06-0.31 0.21-0.14 0.53 0.32 9.82-4.17 10.33-5q0.33-0.52-0.25-0.17-0.58 0.36-0.24-0.18c0.18-0.29 0.6-0.42 0.94-0.3 0.85 0.33 1.96-0.17 1.62-0.72-0.15-0.25-0.07-0.32 0.2-0.16 0.63 0.39 8.81-3.68 8.47-4.22-0.14-0.23-0.03-0.28 0.23-0.12 0.45 0.27 4.87-1.65 4.87-2.12 0-0.24-2.17 0.66-2.9 1.2-0.36 0.26-0.44 0.1-0.27-0.56 0.13-0.51 0.66-1.08 1.16-1.26 1.62-0.6 4.18-0.86 4.18-0.44 0 0.23 2.54-0.86 5.65-2.42 3.11-1.56 5.65-2.92 5.65-3.04 0-0.22-2.1 0.62-2.82 1.12-1.14 0.8-3.79 1.69-3.31 1.11 1.3-1.57 6.57-3.56 6.57-2.48 0 0.22 2.79-0.91 6.19-2.52 3.41-1.61 9.18-4.28 12.83-5.93 4.54-2.05 6.46-3.11 6.09-3.38q-0.56-0.4 0.25-0.13c0.44 0.14 1.67-0.12 2.72-0.59 2-0.88 2.54-1.41 1.05-1.02-0.53 0.14-0.87 0.01-0.87-0.32 0-0.38 0.47-0.46 1.57-0.28 1.01 0.16 2.04 0.02 2.83-0.39 1.54-0.8 1.64-1.19 0.16-0.63q-1.08 0.41-1.09-0.02c0-0.67 1.86-1.21 2.61-0.75 0.76 0.47 9.43-3.17 10.33-4.34 0.3-0.39 0.54-0.48 0.54-0.19 0 0.38 0.27 0.38 1.07 0.02 0.59-0.27 0.97-0.66 0.85-0.86-0.12-0.2 0.03-0.27 0.34-0.16 0.72 0.26 9.16-3.43 8.76-3.83-0.31-0.31-0.93-0.31-2.76 0.01zm-12.61 6.58c-5.08 2.27-5.21 2.31-5.21 1.63 0-0.59 2.56-1.7 5.1-2.22 0.77-0.15 1.52-0.46 1.65-0.68 0.14-0.22 0.68-0.4 1.21-0.39 0.52 0-0.71 0.75-2.75 1.66zm-16.55 7.19c-0.2 0.18-11.93 5.65-14.24 6.64-0.8 0.35-1.33 0.42-1.17 0.17 0.15-0.25 0.52-0.46 0.81-0.46 0.29 0 1.6-0.71 2.91-1.57 1.31-0.87 3.43-1.94 4.72-2.39 1.29-0.45 2.6-1.02 2.91-1.28 0.8-0.67 4.77-1.76 4.06-1.11zm-16.97 7.85c-0.1 0.1-1.11 0.58-2.24 1.07-2.31 0.99-2.84 0.54-0.64-0.55 1.26-0.62 3.37-1 2.88-0.52zm-27.81 13.45c-0.89 0.79-2.96 1.51-2.74 0.95q0.34-0.91 2.31-1.07c0.33-0.02 0.53 0.03 0.43 0.12zm-20.43 10.43c-0.64 0.57-3.01 1.53-3.01 1.22 0-0.44 1.66-1.31 2.57-1.35 0.34-0.02 0.54 0.04 0.44 0.13zm-22.35 12.44c-0.72 0.48-1.45 0.87-1.62 0.87-0.6 0.01 0.18-1.25 0.89-1.44 1.68-0.45 1.95-0.23 0.73 0.57zm-50.18 6.68c0.49 0.42 3.01 0.64 3.01 0.27 0-0.24-0.72-0.43-1.59-0.43-0.88 0-1.52 0.07-1.42 0.16zm3.72 0.57c0.27 0.2 0.6 0.75 0.73 1.23 0.19 0.69 0.23 0.65 0.16-0.18-0.04-0.58-0.37-1.13-0.73-1.23q-0.65-0.17-0.16 0.18zm-8.97 35.11c0 0.59 0.16 1.16 0.36 1.28 0.19 0.12 0.27-0.35 0.17-1.06-0.23-1.55-0.53-1.68-0.53-0.22zm52.08 20.63c-5.31 9.23-14.81 19.99-22.85 25.91-1.95 1.44-3.55 2.84-3.56 3.13-0.01 0.28-0.25 0.66-0.52 0.83q-0.5 0.3-0.16-0.25 0.35-0.56-0.26-0.34c-0.33 0.12-0.56 0.42-0.51 0.66 0.05 0.24-0.24 0.41-0.65 0.38-0.41-0.03-0.71 0.16-0.65 0.43 0.05 0.27-0.15 0.47-0.44 0.44-0.29-0.02-3.28 1.33-6.65 3.02-7.11 3.57-14.71 6.21-22.29 7.74-2.96 0.6-5.5 1.23-5.65 1.4-0.16 0.16 0.15 0.19 0.68 0.06 0.96-0.23 3.17 3.11 3.17 4.81 0 0.33 0.47 2.2 1.05 4.15 0.57 1.95 1.47 4.98 1.98 6.74l0.94 3.21 2.25-0.29c2.22-0.29 3.34-0.54 8.13-1.81 4.42-1.18 7.16-2.02 8.47-2.59 3.19-1.39 6.94-2.42 7.1-1.96 0.17 0.52 5.27-2.11 11.15-5.74 16.33-10.08 32.02-27.07 40.44-43.8 1.49-2.94 4.57-9.84 4.57-10.22 0-0.09-5.24-0.17-11.63-0.18l-11.63-0.03zm3.35-2.55c0.3 0.97-2.05 5.55-4.08 7.95-0.65 0.77-1.95 2.55-2.9 3.98-1.93 2.9-13.21 14.38-14.55 14.8-0.48 0.15-0.86 0.44-0.86 0.64 0 0.51-4.81 3.74-6.11 4.1-1 0.28-0.98 0.24 0.23-0.7 11.61-8.93 22.26-20.99 26.62-30.15 0.82-1.71 1.25-1.87 1.65-0.62zm-115.86 18.25c-2.27 1.19-4.19 2.36-4.27 2.6-0.08 0.25-0.33 0.34-0.55 0.2-0.22-0.13-0.4-0.02-0.4 0.24 0 0.27-0.19 0.37-0.43 0.22-0.24-0.15-0.44-0.03-0.44 0.27 0 0.29-0.11 0.42-0.24 0.28-0.13-0.13-0.76 0.24-1.38 0.82-0.63 0.58-1.41 0.95-1.74 0.83q-0.56-0.21-0.28 0.27 0.31 0.51-0.44 0.22-0.75-0.29-0.43 0.22 0.31 0.5-0.41 0.22c-0.44-0.17-0.68-0.07-0.61 0.26 0.05 0.29-0.24 0.5-0.66 0.46-0.43-0.03-0.63 0.14-0.47 0.4q0.26 0.44-0.46 0.18-0.75-0.29-0.44 0.22 0.34 0.51-0.5 0.18c-0.45-0.17-0.68-0.17-0.51 0 0.45 0.45-1.34 1.58-1.93 1.22q-0.5-0.31-0.14 0.26c0.26 0.43 0.15 0.5-0.47 0.26-0.45-0.17-0.68-0.17-0.5 0 0.46 0.46-1.34 1.57-1.97 1.21-0.3-0.17-0.4-0.15-0.22 0.05 0.46 0.5-1.3 1.63-1.95 1.26-0.3-0.18-0.4-0.16-0.23 0.04 0.43 0.47-1.27 1.65-1.85 1.3-0.25-0.15-0.39-0.02-0.33 0.3 0.07 0.33-0.22 0.55-0.67 0.51-0.43-0.04-0.68 0.04-0.54 0.18 0.4 0.4-1.46 1.48-1.99 1.15q-0.48-0.28-0.2 0.19c0.3 0.47-0.29 0.71-1.26 0.52-0.24-0.05-0.29 0.05-0.11 0.23 0.44 0.44-1.29 1.61-1.86 1.26-0.24-0.15-0.39-0.01-0.32 0.3 0.06 0.32-0.22 0.55-0.64 0.52-0.41-0.03-0.65 0.12-0.52 0.33 0.22 0.35-0.41 0.57-1.25 0.42-0.2-0.03-0.24 0.14-0.09 0.39 0.25 0.4-0.33 0.64-1.22 0.48-0.2-0.03-0.23 0.14-0.08 0.39 0.25 0.4-0.34 0.64-1.22 0.48-0.2-0.03-0.24 0.14-0.09 0.39 0.26 0.4-0.33 0.64-1.22 0.48-0.19-0.03-0.23 0.14-0.08 0.39 0.24 0.38-0.25 0.61-1.12 0.52-0.14-0.02-0.25 0.25-0.25 0.6 0 0.76 0.02 0.76 2.58-0.01 1.14-0.35 2.83-0.72 3.75-0.82 0.97-0.12 2.64-0.86 3.95-1.76 1.26-0.86 2.62-1.57 3.02-1.57 0.41 0 1.71-0.68 2.89-1.52 1.18-0.83 2.38-1.52 2.67-1.52 0.29 0 1.82-0.71 3.41-1.58 3.22-1.77 3.01-1.8 7.47 0.96 1.02 0.63 1.85 0.96 1.85 0.73 0-0.22-0.48-0.62-1.06-0.89-3.87-1.76-5.82-4.44-3.24-4.44 0.79 0 7.76-6.19 7.48-6.65-0.15-0.24-0.08-0.32 0.15-0.17 0.35 0.21 5.45-3.66 7.96-6.05 0.96-0.91 0.58-0.76-3.9 1.57zm-6.96 17.18c0 0.33 9.24 4.6 9.46 4.37 0.16-0.16-8.82-4.59-9.3-4.59-0.09 0-0.16 0.1-0.16 0.22zm10 4.57c0 0.4 7.89 3.12 8.18 2.82 0.12-0.11-0.07-0.28-0.4-0.37-0.33-0.1-2.22-0.76-4.19-1.48-1.97-0.72-3.59-1.16-3.59-0.97zm-36.95 2.32c0 0.38 7.13 5.63 11.53 8.51 7.04 4.58 21.08 11.54 21.08 10.44 0-0.23-0.25-0.42-0.55-0.42-2.53-0.03-20.03-9.88-27.17-15.3-4.17-3.17-4.89-3.64-4.89-3.23zm45.65 0.7c0 0.3 7.1 2.18 8.24 2.18 1.33 0-0.09-0.51-4.05-1.47-2.31-0.56-4.19-0.88-4.19-0.71zm-53.72 1.17c0.04 0.31 0.24 0.71 0.45 0.89 0.2 0.19 0.21 0.07 0.02-0.27-0.27-0.47-0.14-0.56 0.55-0.38 0.63 0.17 0.83 0.07 0.68-0.33-0.28-0.73-1.81-0.65-1.7 0.09zm62.85 1.01c0 0.24 0.53 0.42 1.19 0.41 1.06-0.03 1.1-0.08 0.33-0.41-1.19-0.51-1.52-0.51-1.52 0zm2.82 0.44c0.15 0.24 0.9 0.41 1.66 0.39 1.32-0.04 1.34-0.06 0.3-0.39-1.56-0.5-2.27-0.5-1.96 0zm3.7 0.47c0 0.22 0.91 0.4 2.03 0.4 1.11 0 1.94-0.07 1.84-0.16-0.43-0.38-3.87-0.59-3.87-0.24zm16.3-0.04l-1.74 0.31 2.07 0.07c1.13 0.03 2.06-0.14 2.06-0.38 0-0.24-0.15-0.4-0.33-0.37-0.18 0.03-1.1 0.2-2.06 0.37zm-10.87 0.44c-0.17 0.27 1.08 0.43 3.45 0.43 2.19 0 3.72-0.18 3.72-0.43 0-0.26-1.44-0.44-3.45-0.44-1.9 0-3.57 0.2-3.72 0.44zm47.06 12.49c-0.9 0.37-1.63 0.84-1.63 1.05 0 0.21 0.78-0.01 1.74-0.5 0.96-0.49 1.74-0.98 1.74-1.1 0-0.11-0.05-0.19-0.11-0.16-0.06 0.02-0.84 0.34-1.74 0.71zm-4.13 1.76c-1.02 0.39-1.85 0.85-1.85 1.03 0 0.36 3.04-0.8 3.68-1.41 0.52-0.5 0.4-0.48-1.83 0.38zm-76.47 0.85c0.37 0.6 2.89 1.48 2.89 1.01 0-0.2-0.34-0.46-0.76-0.58-0.42-0.12-1.13-0.37-1.59-0.56q-0.83-0.34-0.54 0.13zm71.8 0.98c-1.2 0.44-1.83 0.82-1.4 0.84 0.86 0.04 3.79-1.1 3.79-1.47 0-0.13-0.05-0.22-0.11-0.2-0.06 0.02-1.09 0.39-2.28 0.83zm-65.65 1.22c0.51 0.52 11.13 3.24 11.44 2.93 0.27-0.28-0.1-0.39-5.57-1.75-2.51-0.62-4.95-1.25-5.43-1.38q-0.88-0.25-0.44 0.2zm61.41-0.05c-0.42 0.11-0.76 0.37-0.76 0.58 0 0.21 0.58 0.18 1.3-0.07 1.96-0.69 1.56-1.06-0.54-0.51zm-3.7 1.12c-1.01 0.24-1.84 0.6-1.84 0.8 0 0.35 3.77-0.63 4.24-1.1 0.31-0.31-0.06-0.26-2.4 0.3zm-45.32 1.97c0.96 0.6 3.92 0.97 3.92 0.5 0-0.23-0.37-0.41-0.82-0.41-0.45 0-1.47-0.11-2.28-0.25q-1.49-0.25-0.82 0.16zm4.82 0.68c0.52 0.45 2.57 0.68 2.57 0.29 0-0.25-0.62-0.45-1.37-0.45-0.76 0-1.3 0.07-1.2 0.16zm26.27 0.28c-0.33 0.52 0.53 0.52 1.73 0 0.78-0.33 0.75-0.38-0.3-0.4-0.64-0.02-1.29 0.16-1.43 0.4zm-22.79 0.16c0.51 0.45 3.44 0.7 3.44 0.29 0-0.25-0.81-0.45-1.81-0.45-1 0-1.73 0.07-1.63 0.16zm18.22 0.29c0 0.29 0.6 0.35 1.63 0.16q3.39-0.61 0.18-0.61c-0.99 0-1.81 0.2-1.81 0.45zm-9.89 0.31c1.61 0.08 4.26 0.08 5.87 0 1.61-0.09 0.29-0.16-2.93-0.16-3.23 0-4.55 0.07-2.94 0.16z"/>
		<path id="path3" fill-rule="evenodd" class="s3" d="m202.47 75.25c0.32 0.58 0.3 3.43-0.07 9.7-0.61 10.3-0.75 9.88 3.41 10.29 11.49 1.13 28.86 8.13 26.37 10.62-0.57 0.57-0.62 0.54-0.42-0.22 0.59-2.26-21.88-10.1-29.09-10.15-2.07-0.02-2.09-0.11-1.59-9.37 0.26-4.77 0.57-9.35 0.7-10.18 0.2-1.33 0.28-1.41 0.69-0.69zm-6.71 17.72c0.99 0.99 0.51 1.22-2.63 1.21-3.26-0.01-4.57-0.41-4.05-1.25 0.41-0.66 6.01-0.63 6.68 0.04zm-9.91 1.44c0 0.69-0.52 0.79-2.06 0.37-0.54-0.14-0.87-0.43-0.74-0.64 0.42-0.68 2.8-0.45 2.8 0.27zm-4.98 0.24c0.39 0.65 0.02 0.91-0.83 0.59-0.39-0.15-0.6-0.45-0.47-0.66 0.33-0.53 0.95-0.49 1.3 0.07zm-4.37 0.45l0.87 0.02-0.87 0.37c-1.3 0.56-2.38 0.56-1.52 0 0.36-0.23 1.04-0.41 1.52-0.39zm-63.55 9.96c0.51 0-0.11 0.8-3.34 4.32-1.41 1.54-3.42 4.08-4.45 5.65-1.04 1.57-2.65 3.96-3.59 5.33-1.52 2.21-2.72 4.23-4.97 8.39-1.6 2.97-4.98 10.07-5.27 11.08-0.17 0.6-0.77 2.26-1.32 3.7-1.62 4.17-3.25 9.49-4.18 13.58-0.9 3.98-1.23 5.76-2.38 12.93-0.39 2.39-0.78 4.46-0.86 4.6-0.42 0.68-0.31 19.46 0.13 20.84 0.26 0.83 0.8 3.87 1.2 6.74 0.4 2.86 0.8 5.33 0.88 5.47 0.09 0.14 0.46 1.71 0.82 3.49 3.46 16.75 19.28 45.04 27.81 49.75 1.13 0.62 0.52 1.49-1.02 1.49q-1.24 0.01-1.93-1.05c-0.38-0.59-1.14-1.53-1.68-2.1-0.54-0.57-1.47-1.66-2.07-2.42-0.6-0.77-1.72-2.13-2.49-3.02-0.77-0.89-1.41-1.78-1.41-1.98-0.01-0.19-0.34-0.68-0.75-1.09-2.6-2.58-12.45-19.75-12.45-21.7 0-0.3-0.17-0.54-0.39-0.54-0.21 0-0.27-0.19-0.14-0.41 0.14-0.22 0.05-0.53-0.19-0.68-0.25-0.15-0.34-0.46-0.2-0.68 0.13-0.22 0.07-0.41-0.14-0.41-0.31 0-1.43-2.66-1.66-3.91-0.02-0.12-0.16-0.51-0.32-0.87-0.83-1.93-1.56-4.48-1.37-4.79 0.12-0.19 0.02-0.42-0.22-0.5-0.23-0.08-0.49-0.74-0.57-1.47-0.08-0.73-0.26-1.51-0.4-1.74-0.31-0.51-1.95-8.35-1.99-9.54-0.02-0.48-0.28-1.95-0.59-3.26-0.61-2.67-0.77-23.28-0.21-27.39 0.18-1.31 0.32-2.92 0.32-3.57-0.01-0.65 0.17-1.29 0.39-1.43 0.22-0.13 0.3-0.5 0.18-0.81-0.12-0.31-0.01-1.43 0.25-2.48 0.26-1.06 0.57-2.7 0.7-3.64 0.13-0.95 0.35-1.92 0.5-2.16 0.15-0.24 0.33-1.01 0.41-1.72 0.08-0.7 0.33-1.51 0.57-1.79 0.23-0.29 0.3-0.64 0.15-0.79-0.15-0.16-0.03-0.58 0.27-0.94 0.31-0.37 0.39-0.67 0.2-0.67-0.2 0-0.14-0.21 0.13-0.48 0.26-0.27 0.38-0.76 0.25-1.09-0.12-0.33-0.03-0.6 0.2-0.6 0.24 0 0.43-0.44 0.43-0.98 0-0.53 0.31-1.71 0.69-2.61 0.38-0.9 0.64-1.7 0.59-1.78-0.05-0.08 0.18-0.47 0.51-0.87 0.33-0.39 0.47-0.71 0.31-0.71-0.16 0-0.04-0.44 0.25-0.98 0.3-0.54 0.6-1.36 0.68-1.83 0.08-0.46 0.82-2.05 1.64-3.52 0.82-1.48 1.37-2.81 1.22-2.96-0.15-0.15-0.05-0.28 0.23-0.28 0.28 0 0.47-0.14 0.42-0.32-0.17-0.65 0.59-2.29 1.06-2.29 0.26 0 0.35-0.12 0.2-0.27-0.15-0.15 0.11-0.77 0.58-1.36 0.47-0.6 0.86-1.36 0.86-1.69 0-0.32 0.2-0.59 0.46-0.59 0.25 0 0.34-0.19 0.19-0.43-0.15-0.24-0.06-0.44 0.19-0.44 0.25 0 0.46-0.29 0.46-0.65 0-0.36 0.21-0.65 0.46-0.65 0.25 0 0.34-0.2 0.19-0.44-0.15-0.24-0.06-0.43 0.19-0.43 0.26 0 0.46-0.19 0.46-0.43 0-0.24 0.35-0.83 0.77-1.32 0.41-0.49 0.76-1.03 0.76-1.21 0-0.18 0.44-0.79 0.97-1.37 0.54-0.58 0.98-1.31 0.98-1.62 0-0.32 0.2-0.57 0.44-0.57 0.24 0 0.43-0.28 0.43-0.61 0-0.33 0.3-0.72 0.65-0.85 0.36-0.14 0.66-0.55 0.66-0.9 0-0.36 0.39-0.86 0.87-1.12 0.47-0.26 0.87-0.7 0.87-1 0-0.29 0.39-0.77 0.86-1.07 0.48-0.3 0.87-0.84 0.87-1.19 0-0.36 0.19-0.65 0.43-0.65 0.23 0 1.44-1.27 2.68-2.83 1.25-1.55 2.45-2.82 2.68-2.82zm114.49 9.16c0.26 0.26 2.69 1.02 5.41 1.7 11.69 2.92 21.6 5.58 22.42 6.02 0.48 0.26 2.17 0.67 3.75 0.93 3.09 0.49 5.58 1.31 4.84 1.59-0.42 0.16-38.01-9.26-38.37-9.61-0.09-0.1-0.04-0.38 0.12-0.64 0.37-0.59 1.23-0.59 1.83 0.01zm-77.54 30.94c-6.75 7.42-13.9 25.44-14.71 37.06-0.17 2.39-0.46 4.54-0.65 4.78-0.7 0.88-0.9 3.53-0.41 5.43 0.28 1.08 0.7 3.8 0.94 6.04 2.37 22.26 14.48 37.53 32.95 41.56 1.8 0.39 4.07 0.97 5.05 1.29 1.3 0.43 2.36 0.47 3.91 0.18 2.19-0.41 6.85 0.3 5.88 0.9-2.36 1.45-16.67-0.46-22.92-3.06-13.75-5.73-24.79-21.22-26.55-37.28-0.92-8.36-0.9-13.67 0.07-21.58 0.11-0.96 0.22-2.12 0.24-2.59 0.01-0.47 0.23-1.09 0.47-1.39 0.25-0.3 0.33-0.75 0.18-1-0.16-0.25-0.14-0.69 0.04-0.98 0.18-0.29 0.38-1 0.44-1.58 0.06-0.58 0.25-1.37 0.42-1.76 0.17-0.38 0.35-0.85 0.4-1.02 0.06-0.18 0.14-0.38 0.18-0.44 0.05-0.06 0.17-0.52 0.26-1.03 0.1-0.5 0.41-1.48 0.69-2.17 0.28-0.69 0.57-1.52 0.63-1.84 0.25-1.22 4.26-9.2 4.63-9.2 0.21 0 0.27-0.19 0.12-0.43-0.15-0.24-0.06-0.44 0.19-0.44 0.25 0 0.46-0.29 0.46-0.65 0-0.36 0.21-0.65 0.46-0.65 0.25 0 0.35-0.17 0.22-0.39-0.13-0.21 0.05-0.5 0.41-0.64 0.36-0.14 0.65-0.55 0.65-0.91 0-0.37 0.2-0.67 0.43-0.67 0.24 0 0.44-0.29 0.44-0.65 0-0.36 0.19-0.65 0.43-0.65 0.24 0 0.44-0.25 0.44-0.55 0-0.3 0.39-0.79 0.87-1.09 0.48-0.3 0.87-0.75 0.87-1 0-0.24 0.53-0.92 1.19-1.5 1.51-1.33 1.84-1.38 0.68-0.1zm50.73 2.89c5.53 1.76 15.63 10.59 13.2 11.53-0.92 0.35-2.43-0.12-2.1-0.65 0.14-0.22 0.09-0.4-0.11-0.4-0.21 0-0.72-0.6-1.15-1.32-1.71-2.9-8.19-7.48-11.52-8.13-0.39-0.08-1.2-0.25-1.8-0.38-0.6-0.13-1.97-0.33-3.04-0.44-2.96-0.3-3.98-0.59-3.7-1.03 0.42-0.68 7.24-0.14 10.22 0.82zm-12.41-0.42c0.14 0.22 0.05 0.53-0.2 0.68-0.64 0.4-3.1-0.2-2.8-0.69 0.32-0.52 2.68-0.51 3 0.01zm32.19 26.22l1.81-0.06c2.57-0.07 3.73 1.16 2.78 2.94-0.5 0.94-3.11 9.86-4.33 14.84-0.49 2.03-1.6 5.94-2.46 8.69-2.47 7.95-2.53 8.38-1.96 12.79 0.71 5.45 2.14 14.61 2.88 18.45 0.35 1.76 0.63 3.91 0.63 4.78 0 0.87 0.39 2.22 0.86 3l0.86 1.41h-1.24c-1.06 0-1.22-0.16-1.11-1.09 0.06-0.6-0.05-1.09-0.25-1.09-0.2 0-0.36-0.63-0.35-1.41 0-0.77-0.1-2.19-0.24-3.15-0.15-0.96-0.28-2.08-0.29-2.49-0.02-0.41-0.23-0.87-0.46-1.01-0.23-0.15-0.29-0.93-0.14-1.75q0.28-1.49-0.22-1.49-0.51 0.01-0.22-1.52c0.18-0.98 0.12-1.52-0.19-1.52-0.29 0-0.37-0.5-0.21-1.3 0.18-0.9 0.09-1.31-0.28-1.31-0.37 0-0.46-0.41-0.28-1.3 0.15-0.77 0.07-1.31-0.19-1.31-0.27 0-0.33-0.59-0.16-1.52q0.29-1.52-0.2-1.52c-0.31 0-0.39-0.41-0.22-1.09 0.15-0.59 0.13-1.43-0.05-1.84-0.47-1.11-0.54-4.9-0.1-4.9 0.22 0 0.26-0.41 0.09-0.92q-0.29-0.93 0.19-0.63c0.3 0.19 0.51-0.09 0.55-0.7 0.11-1.61 0.16-1.82 0.75-2.89 0.3-0.55 0.45-1.29 0.32-1.63-0.13-0.34-0.03-0.62 0.23-0.62 0.26 0 0.35-0.29 0.22-0.65-0.14-0.36-0.04-0.65 0.22-0.65 0.26 0 0.37-0.39 0.24-0.87-0.12-0.48-0.04-0.87 0.19-0.87 0.22 0 0.37-0.24 0.32-0.54-0.05-0.3 0.14-1.1 0.42-1.78 0.28-0.68 0.4-1.41 0.26-1.63-0.13-0.22-0.02-0.4 0.27-0.4 0.29 0 0.41-0.36 0.28-0.87-0.12-0.47-0.03-0.86 0.21-0.86 0.25 0 0.33-0.3 0.19-0.66-0.13-0.36-0.04-0.65 0.23-0.65 0.25 0 0.36-0.39 0.24-0.87-0.13-0.48-0.04-0.87 0.19-0.87 0.24 0 0.3-0.39 0.15-0.87-0.17-0.53-0.08-0.87 0.24-0.87 0.28 0 0.4-0.29 0.26-0.65-0.14-0.36-0.05-0.65 0.2-0.65 0.26 0 0.32-0.39 0.15-0.92-0.21-0.67-0.14-0.84 0.24-0.6 0.38 0.23 0.44 0.06 0.23-0.6-0.18-0.58-0.1-0.92 0.22-0.92 0.28 0 0.4-0.3 0.26-0.66-0.14-0.35-0.04-0.65 0.22-0.65 0.26 0 0.35-0.29 0.22-0.65-0.14-0.36-0.05-0.65 0.2-0.65 0.25 0 0.33-0.38 0.17-0.87-0.17-0.53-0.08-0.87 0.24-0.87 0.28 0 0.4-0.28 0.27-0.62-0.14-0.35-0.03-0.7 0.22-0.79 1.14-0.37-0.15-1.96-1.93-2.39zm-33.77 17.21c-1.44 5.57-1.15 5.72 10.46 5.72 11.58 0 12.73 0.5 11.24 4.88-1.19 3.48-7.29 11.92-6.54 9.05 0.14-0.53 0.52-1.06 0.84-1.19 0.33-0.12 0.59-0.5 0.59-0.83 0-0.33 0.18-0.6 0.39-0.6 0.21 0 0.51-0.49 0.66-1.09 0.15-0.6 0.48-1.09 0.73-1.09 0.25 0 0.34-0.18 0.2-0.4-0.13-0.22 0.06-0.71 0.44-1.08 0.38-0.38 0.59-0.69 0.46-0.69-0.12 0 0.03-0.64 0.35-1.41 0.31-0.78 0.7-1.95 0.85-2.61l0.29-1.2h-10.92c-14 0-14.33-0.15-12.25-5.65 0.14-0.36 0.21-0.82 0.16-1.02-0.04-0.21 0.12-0.62 0.37-0.91 0.24-0.3 0.32-0.66 0.17-0.82-0.15-0.15-0.09-0.52 0.14-0.82 0.23-0.31 0.46-1.22 0.51-2.03 0.05-0.81 0.22-1.69 0.38-1.95 0.16-0.26 0.32-0.77 0.35-1.14 0.14-1.72 0.76-4.19 1.18-4.7 1.68-2.02 1.25 2.71-1.05 11.58zm18.97 40.94c1.21 0 2.11 1.37 2.58 3.97 0.45 2.5 1.76 3.85 3.72 3.85 0.94 0 1.88 0.28 2.19 0.65 0.47 0.57 0.1 0.65-2.98 0.65-4.27 0-4.67-0.39-5.11-5.12-0.21-2.21-0.47-3.13-0.88-3.13-0.33 0-0.59-0.2-0.59-0.44 0-0.24 0.48-0.43 1.07-0.43zm-81.5 38.28c0.02 2.36 15.68 11.76 27.61 16.59 5.79 2.34 7.72 2.95 13.91 4.37 8.09 1.87 9.46 2.14 12.61 2.51 5.97 0.7 8.8 1.54 7.98 2.36-0.46 0.46-3.12 0.79-2.85 0.36 0.17-0.28-1.09-0.55-3.37-0.72-3.8-0.3-12.04-1.84-17.6-3.3-1.78-0.47-3.39-0.75-3.59-0.63-0.19 0.12-0.35-0.01-0.35-0.29 0-0.28-0.3-0.39-0.65-0.26-0.36 0.14-0.66 0.04-0.66-0.21 0-0.26-0.28-0.36-0.62-0.23-0.34 0.13-0.69 0.09-0.76-0.09-0.08-0.18-1.8-0.98-3.83-1.79-12.41-4.9-31.52-16.67-30.41-18.74 0.23-0.44 0.76-0.98 1.17-1.21 0.82-0.46 1.4 0.07 1.41 1.28zm79.87 5.66c1.17 2.28 5.36 18.37 4.92 18.82-0.78 0.78-1.14-0.14-3.68-9.51-1.36-5.02-2.58-9.5-2.71-9.94-0.34-1.18 0.81-0.69 1.47 0.63zm-7.7 20.01c0 0.43-5.77 0.52-7.28 0.11-2.05-0.55-1.07-1.42 1.74-1.55 3.73-0.18 5.54 0.29 5.54 1.44zm5.65-1.79c0.61 0 0.93 0.78 0.44 1.08-0.58 0.36-1.4-0.15-1.07-0.67 0.13-0.23 0.42-0.41 0.63-0.41zm-2.86 0.7c0.96 0.37 0.41 1.04-0.86 1.04-1.03 0-1.36-0.43-0.77-1.02 0.36-0.35 0.74-0.36 1.63-0.02z"/>
		<path id="path4" fill-rule="evenodd" class="s4" d="m138.68 86.19c-0.48 0.37-0.82 0.85-0.76 1.07 0.06 0.23-0.38 0.41-0.98 0.41-1.48 0-1.37-0.27 0.54-1.28q2.95-1.55 1.2-0.2zm-3.41 1.48c0.53-0.01-0.63 1.79-1.29 2-3.34 1.06-16.2 12.06-22.9 19.6-4.12 4.63-9.52 12.06-11.48 15.78-0.69 1.32-1.5 2.69-1.81 3.05-0.3 0.35-1.06 1.82-1.68 3.26-0.62 1.43-1.81 3.9-2.64 5.49-0.84 1.59-1.52 3.18-1.52 3.53 0 0.36-0.56 1.99-1.24 3.64-2.26 5.44-5.02 15.62-5.74 21.23-0.22 1.68-0.71 4.53-1.1 6.32-1.04 4.83-1.35 20.63-0.46 24.12 0.36 1.44 0.78 3.69 0.92 5 0.86 7.94 4.16 19.64 7.84 27.84 1.12 2.5 2.42 5.5 2.88 6.66 0.46 1.16 1.64 3.31 2.62 4.78 0.99 1.47 2.18 3.36 2.65 4.2 3.09 5.49 10.97 14.98 13.22 15.92 2.02 0.84 2.08 1.28 0.33 2.35-1.15 0.72-1.68 0.84-2.04 0.47-0.37-0.36-0.2-0.49 0.66-0.49 1.48 0 2.04-0.89 0.94-1.49-8.53-4.71-24.35-33-27.81-49.75-0.36-1.78-0.73-3.35-0.82-3.49-0.08-0.14-0.48-2.61-0.88-5.47-0.4-2.87-0.94-5.91-1.2-6.74-0.44-1.38-0.55-20.16-0.13-20.84 0.08-0.14 0.47-2.21 0.86-4.6 1.15-7.17 1.48-8.95 2.38-12.93 0.93-4.09 2.56-9.41 4.18-13.58 0.55-1.44 1.15-3.1 1.32-3.7 0.17-0.59 1.27-3.04 2.44-5.43 4.03-8.23 5.69-11.06 10.65-18.19 1.08-1.56 1.26-2.22 0.46-1.76q-0.48 0.26-0.18-0.09c0.2-0.21 0.59-0.39 0.87-0.39 0.28 0 0.51-0.33 0.51-0.73 0.01-0.86 0.51-1.44 1.23-1.45 0.28 0 0.51-0.32 0.51-0.72 0.01-0.86 1.49-2.6 1.97-2.31 0.39 0.24 3.47-3.2 3.33-3.71-0.29-1.09 13.22-12.04 19.65-15.91 1.34-0.81 2.46-1.47 2.5-1.47zm61.24 5.68l0.64 1.22-5.65 0.14c-4.3 0.1-5.65 0-5.65-0.41 0-0.65-2.44-0.74-2.83-0.11-0.15 0.24 0.09 0.46 0.52 0.49 0.43 0.03 0.1 0.18-0.74 0.33-1.06 0.19-1.66 0.09-1.99-0.34-0.28-0.35-0.71-0.47-1.03-0.28-0.43 0.27-0.43 0.41-0.01 0.67 0.31 0.19-0.83 0.55-2.67 0.85-7.76 1.25-17.05 4.2-24.29 7.73-6.04 2.95-5.75 2.85-5.22 1.85 0.48-0.89 1.9-1.83 2.48-1.64 0.19 0.06 0.84-0.23 1.43-0.66q4.11-2.92 5.14-2.92c0.42 0 1.24-0.34 1.83-0.75 1.72-1.21 10.49-3.9 16.68-5.12 3.13-0.62 6.59-1.32 7.68-1.56 1.09-0.23 2.27-0.32 2.63-0.18 0.36 0.14 1.72-0.04 3.02-0.39q6.57-1.77 8.03 1.08zm-7.43-0.42c-0.52 0.84 0.79 1.24 4.05 1.25 3.14 0.01 3.62-0.22 2.63-1.21-0.67-0.67-6.27-0.7-6.68-0.04zm-11.71 2.19l-0.87-0.02c-0.48-0.02-1.16 0.16-1.52 0.39-0.86 0.56 0.22 0.56 1.52 0zm-30.65 11.42c0 0.1-0.95 0.77-2.13 1.5-1.5 0.92-2.1 1.12-2.03 0.66 0.05-0.35 0.67-1.01 1.37-1.46 1.15-0.74 2.79-1.15 2.79-0.7zm45 19.51c1.19 0 1.73 0.08 1.2 0.18-0.54 0.11-1.51 0.11-2.18 0.01-0.66-0.1-0.22-0.19 0.98-0.19zm-31.08 10.09c-8.99 6.99-19.79 22.33-21.12 30-0.17 0.95-0.54 2.23-0.83 2.82-1.21 2.49-2.84 10.48-2.88 14.13-0.02 1.44-0.34 3.58-0.72 4.77-0.64 1.98-0.64 2.43 0.03 5.7 0.41 1.96 0.74 4.41 0.75 5.46 0.03 3.37 2.13 12.04 3.99 16.46 8.7 20.64 29.91 29.77 53.16 22.88 5.24-1.55 6.14-1.23 2.15 0.76-5 2.5-10.01 3.53-13.2 2.71-2.19-0.57-3.36-0.64-4.99-0.33-1.55 0.3-2.61 0.25-3.91-0.17-0.98-0.33-3.25-0.91-5.04-1.3-18.48-4.02-30.59-19.3-32.96-41.56-0.24-2.24-0.66-4.96-0.94-6.03-0.49-1.9-0.29-4.55 0.41-5.44 0.19-0.24 0.48-2.39 0.65-4.78 0.67-9.68 5.26-22.96 10.93-31.61 2.07-3.17 2.32-3.8 1.15-2.91-0.66 0.49-0.69 0.49-0.2-0.06 0.31-0.35 0.8-0.63 1.09-0.63 0.29 0 0.52-0.32 0.53-0.72 0-1.04 8.31-9.08 11.78-11.41 4.16-2.79 4.27-1.93 0.17 1.26zm49.34 17.19c5.11 4.9 5.15 4.91 11.86 1.01 1.03-0.6 2.1-1 2.39-0.9 0.29 0.11 0.92 0 1.4-0.24 2.22-1.09-0.29 0.62-3.05 2.08-1.67 0.89-4.63 2.48-6.58 3.53-2.95 1.59-3.58 1.8-3.8 1.23-0.15-0.4-0.08-0.57 0.17-0.42 0.6 0.37 2.17-0.17 2.17-0.74 0-1.81-9.98-9.57-13.91-10.83-3.88-1.24-11.88-1.55-10-0.39 0.32 0.2-0.09 0.4-1.01 0.51-0.92 0.11-1.51 0-1.46-0.27 0.11-0.62-2.31-0.85-2.89-0.27-0.33 0.33-0.22 0.48 0.38 0.5 0.47 0.02-0.86 0.5-2.94 1.07-2.09 0.58-4.59 1.45-5.55 1.94-2.49 1.26-2.16 0.42 0.54-1.39 2.39-1.61 7.15-3.27 10.1-3.53 9.91-0.86 15.84 1.04 22.18 7.11zm-15.65-5.12c0.95-0.01 1.39 0.08 0.98 0.19-0.42 0.11-1.2 0.11-1.74 0.01-0.54-0.11-0.2-0.2 0.76-0.2zm35.61 2.45c0.24 0.38-1.05 1.39-2.42 1.89-1.14 0.42-0.69-0.99 0.53-1.66 1.26-0.7 1.58-0.74 1.89-0.23zm-40.44 28.43c0.43 0.68 0.16 2.26-2.24 12.83-0.93 4.15-1.32 3.98 9.28 3.99 11.48 0.01 13.36 0.6 12.95 4.07-0.63 5.29-8.98 15.71-13.55 16.91-1.33 0.34-1.21-0.28 0.23-1.22 0.66-0.43 2.26-1.78 3.56-2.99 1.29-1.21 2.19-1.91 1.99-1.55-1.03 1.86 2.32-1.95 4.01-4.56 5.64-8.68 4.67-9.78-8.62-9.78-11.27 0-11.97-0.32-10.68-4.9 2.09-7.4 2.86-13.49 1.6-12.71-0.25 0.15-0.44-0.02-0.44-0.37 0-0.83 1.34-0.63 1.91 0.28zm-4.76 18.8c0.46 0.35 0.62 0.63 0.36 0.63-0.83 0-1.86-0.5-1.86-0.91 0-0.56 0.52-0.46 1.5 0.28zm24.15 38.59c0 1.59 1.26 2.47 3.49 2.47 1.72 0 2.18 0.18 2.77 1.09 0.82 1.25-0.06 1.62-1.04 0.43-0.31-0.37-1.26-0.65-2.2-0.65-1.96 0-3.27-1.35-3.72-3.84-0.71-3.94-2.35-4.99-4.33-2.79l-1.08 1.2 0.74-1.63c1.57-3.44 5.37-0.81 5.37 3.72zm-2.63 1.69c0.17 0.88 0.56 1.91 0.87 2.28 0.48 0.58 0.42 0.68-0.36 0.68-0.83 0-0.92-0.23-0.87-2.29 0.04-2.17 0.06-2.2 0.36-0.67zm-28.67 4.4c1.55 0 2.19 0.08 1.41 0.18-0.78 0.09-2.05 0.09-2.82 0-0.78-0.1-0.15-0.18 1.41-0.18zm-52.51 12.03c1.11 0 0.97 0.24-0.67 1.21-0.8 0.47-1.94 1.17-2.54 1.56-0.97 0.64-1.08 0.64-1.08 0.04 0-0.39 0.49-0.78 1.16-0.92 0.64-0.13 1.44-0.6 1.76-1.06 0.33-0.45 0.95-0.83 1.37-0.83zm-6.59 3.92c1 0 0.78 0.64-0.44 1.29-0.75 0.4-0.88 0.09-0.49-1.19 0.02-0.06 0.44-0.1 0.93-0.1zm6.3 9.13c0.01 0 0.02 0.66 0.02 1.48 0 2 0.4 2.4 6.68 6.57 12.56 8.35 29.07 14.76 43.06 16.69 8.3 1.15 9.83 1.4 10.93 1.74 0.63 0.2 1.41 0.19 1.74-0.02 0.32-0.21 3.13-0.35 6.24-0.32 3.1 0.03 6.36-0.08 7.23-0.26 2.68-0.54 4.62 1.18 2.44 2.15-1.14 0.51-3.93 0.34-3.59-0.21 0.38-0.62-1.56-1.01-2.11-0.43-0.37 0.41-0.36 0.58 0.05 0.73 0.3 0.11 0.54 0.38 0.54 0.6 0 0.76-1.06 0.4-1.94-0.66-0.97-1.16-1.32-1.24-5.34-1.16-2.68 0.05-3.9 0.98-1.96 1.49 0.42 0.11 0.1 0.22-0.71 0.25-0.91 0.03-1.67-0.23-1.99-0.66-0.55-0.75-2.78-1.29-7.84-1.88-3.15-0.37-4.52-0.64-12.61-2.5-18.79-4.33-46.61-19.94-41.41-23.24 0.3-0.2 0.56-0.35 0.57-0.36zm77.14 26.51c-0.61 0-0.92 0.78-0.44 1.09 0.58 0.35 1.4-0.16 1.08-0.68-0.14-0.23-0.43-0.41-0.64-0.41z"/>
	</g>
</svg>