<svg version="1.1" id="Layer_1" xmlns="http://www.w3.org/2000/svg" xmlns:xlink="http://www.w3.org/1999/xlink" x="0px" y="0px"
	 width="100%" viewBox="0 0 96 96" enable-background="new 0 0 96 96" xml:space="preserve">
<path fill="#000000" opacity="1.000000" stroke="none" 
	d="
M60.000000,97.000000 
	C40.000004,97.000000 20.500008,97.000000 1.000008,97.000000 
	C1.000005,65.000008 1.000005,33.000019 1.000003,1.000021 
	C32.999985,1.000014 64.999969,1.000014 96.999969,1.000007 
	C96.999977,32.999981 96.999977,64.999962 96.999985,96.999969 
	C84.833336,97.000000 72.666664,97.000000 60.000000,97.000000 
M46.569984,76.133781 
	C38.767147,72.791183 35.587570,65.980324 32.525257,57.974380 
	C41.394257,57.974380 49.472034,57.974380 57.647350,57.974380 
	C57.647350,55.758789 57.647350,54.053398 57.647350,51.933823 
	C49.047146,51.933823 40.779087,51.933823 32.311661,51.933823 
	C32.311661,49.807415 32.311661,48.103043 32.311661,45.819553 
	C41.013409,45.819553 49.410324,45.819553 58.038811,45.819553 
	C57.928062,43.626255 57.847313,42.027161 57.740795,39.917671 
	C49.382507,39.917671 41.322311,39.917671 32.358173,39.917671 
	C33.801159,36.824413 34.774437,34.452930 35.978275,32.204914 
	C42.496571,20.032793 56.520290,15.144673 67.776131,24.625845 
	C72.420677,28.538101 73.803802,26.050905 76.830017,21.897821 
	C72.194733,19.135235 68.197052,15.592427 63.554008,14.197058 
	C47.921535,9.499045 33.600868,16.590752 27.190708,34.272812 
	C25.683937,38.429153 24.228140,41.021797 19.299461,40.069771 
	C19.299461,42.160671 19.299461,43.885334 19.299461,45.655170 
	C21.316900,45.938187 23.057110,46.182312 24.732365,46.417324 
	C24.732365,48.339531 24.732365,49.943340 24.732365,51.668076 
	C22.754234,51.917576 21.011684,52.137363 18.996773,52.391506 
	C19.085754,54.401886 19.161831,56.120705 19.248821,58.086094 
	C23.987343,57.209476 25.986298,59.029446 27.069218,63.150818 
	C28.641523,69.134682 32.264385,73.942039 36.719612,78.364388 
	C46.696957,88.268074 68.452469,87.485023 75.858131,74.893517 
	C72.294762,70.433250 72.235413,70.352768 67.621902,73.754913 
	C61.295055,78.420532 54.544621,79.539963 46.569984,76.133781 
z"/>
<path fill="#40C057" opacity="1.000000" stroke="none" 
	d="
M46.878654,76.388748 
	C54.544621,79.539963 61.295055,78.420532 67.621902,73.754913 
	C72.235413,70.352768 72.294762,70.433250 75.858131,74.893517 
	C68.452469,87.485023 46.696957,88.268074 36.719612,78.364388 
	C32.264385,73.942039 28.641523,69.134682 27.069218,63.150818 
	C25.986298,59.029446 23.987343,57.209476 19.248821,58.086094 
	C19.161831,56.120705 19.085754,54.401886 18.996773,52.391506 
	C21.011684,52.137363 22.754234,51.917576 24.732365,51.668076 
	C24.732365,49.943340 24.732365,48.339531 24.732365,46.417324 
	C23.057110,46.182312 21.316900,45.938187 19.299461,45.655170 
	C19.299461,43.885334 19.299461,42.160671 19.299461,40.069771 
	C24.228140,41.021797 25.683937,38.429153 27.190708,34.272812 
	C33.600868,16.590752 47.921535,9.499045 63.554008,14.197058 
	C68.197052,15.592427 72.194733,19.135235 76.830017,21.897821 
	C73.803802,26.050905 72.420677,28.538101 67.776131,24.625845 
	C56.520290,15.144673 42.496571,20.032793 35.978275,32.204914 
	C34.774437,34.452930 33.801159,36.824413 32.358173,39.917671 
	C41.322311,39.917671 49.382507,39.917671 57.740795,39.917671 
	C57.847313,42.027161 57.928062,43.626255 58.038811,45.819553 
	C49.410324,45.819553 41.013409,45.819553 32.311661,45.819553 
	C32.311661,48.103043 32.311661,49.807415 32.311661,51.933823 
	C40.779087,51.933823 49.047146,51.933823 57.647350,51.933823 
	C57.647350,54.053398 57.647350,55.758789 57.647350,57.974380 
	C49.472034,57.974380 41.394257,57.974380 32.525257,57.974380 
	C35.587570,65.980324 38.767147,72.791183 46.878654,76.388748 
z"/>
</svg>